    <svg xmlns="http://www.w3.org/2000/svg" xmlns:xlink="http://www.w3.org/1999/xlink" width="282" height="38" viewBox="0 0 282 38">
        <defs>
            <path id="prefix__a" d="M0 37.833L281.547 37.833 281.547 0 0 0z"/>
        </defs>
        <g fill="none" fill-rule="evenodd">
            <path fill="#000" d="M86.763 19.483c0 3.08-1.246 4.421-4.385 4.421-3.15 0-4.385-1.341-4.385-4.42v-9.058h-5.026v9.26c0 5.572 3.182 8.172 9.411 8.172 6.23 0 9.411-2.6 9.411-8.171v-9.261h-5.026v9.057zM223.557 19.483c0 3.08-1.234 4.421-4.384 4.421-3.14 0-4.386-1.341-4.386-4.42v-9.058h-5.025v9.26c0 5.572 3.18 8.172 9.41 8.172s9.411-2.6 9.411-8.171v-9.261h-5.026v9.057z"/>
            <mask id="prefix__b" fill="#fff">
                <use xlink:href="#prefix__a"/>
            </mask>
            <path fill="#000" d="M95.14 27.582L100.165 27.582 100.165 10.426 95.14 10.426zM128.936 27.582L133.962 27.582 133.962 10.426 128.936 10.426zM231.934 27.582L236.96 27.582 236.96 10.426 231.934 10.426zM165.994 20.801l3.081-6.29 3.081 6.29h-6.162zm.062-10.375l-8.404 17.156h5.02l1.567-3.199h9.672l1.568 3.2h5.02l-8.404-17.157h-6.039zM267.043 20.801l3.08-6.29 3.082 6.29h-6.162zm6.1-10.375h-6.038L258.7 27.582h5.02l1.568-3.199h9.672l1.567 3.2h5.02l-8.404-17.157zM240.311 14.415L250.692 14.415 240.311 24.324 240.311 27.583 257.863 27.583 257.863 23.593 247.481 23.593 257.863 13.685 257.863 10.426 240.311 10.426zM65.207 19.052c0 2.816-1.306 4.864-5.403 4.864-4.098 0-5.416-2.048-5.416-4.864v-.096c0-2.815 1.318-4.864 5.416-4.864 4.097 0 5.403 2.049 5.403 4.864v.096zm-5.403-8.902c-6.83 0-10.664 3.14-10.664 8.806v.096c0 4.926 2.9 7.94 8.144 8.643v3.513h5.026v-3.511c5.241-.703 8.144-3.716 8.144-8.645v-.096c0-5.667-3.834-8.806-10.65-8.806zM147.137 14.092c3.188 0 4.68 1.244 5.187 3.12h5.328c-.73-4.561-4.434-7.061-10.515-7.061-6.829 0-10.663 3.138-10.663 8.805v.096c0 5.667 3.834 8.806 10.663 8.806 6.081 0 9.786-2.5 10.515-7.063h-5.328c-.507 1.877-2 3.121-5.187 3.121-4.097 0-5.415-2.048-5.415-4.864v-.096c0-2.815 1.318-4.864 5.415-4.864M114.55 20.961L109.147 10.426 103.516 10.426 103.516 27.583 108.542 27.583 108.542 18.754 113.068 27.583 116.032 27.583 120.559 18.754 120.559 27.583 125.584 27.583 125.584 10.426 119.954 10.426zM203.23 17.752c-1.68-.367-3.837-.55-5.587-.713-.811-.078-1.557-.15-2.13-.233-1.796-.276-2.365-.647-2.365-1.474 0-.97 1.464-1.623 4.028-1.623 2.85 0 4.25.735 4.702 2.305h4.933c-.464-3.84-3.64-5.864-9.635-5.864-5.739 0-9.138 2.106-9.138 5.64 0 2.72 1.54 3.927 4.02 4.466 1.68.367 3.836.55 5.585.713.811.077 1.558.15 2.13.233 1.797.276 2.366.648 2.366 1.474 0 .97-1.465 1.624-4.028 1.624-2.85 0-5.127-.736-5.578-2.306H187.6c.464 3.84 4.517 5.864 10.51 5.864 5.74 0 9.139-2.106 9.139-5.64 0-2.72-1.54-3.927-4.02-4.466" mask="url(#prefix__b)"/>
            <path fill="red" d="M38.002 19.001c0-10.494-8.507-19-19-19C8.506 0 0 8.506 0 19c0 9.633 7.169 17.591 16.462 18.832v-5.14C9.985 31.5 5.077 25.824 5.077 19c0-7.69 6.234-13.923 13.924-13.923 7.69 0 13.923 6.233 13.923 13.923 0 6.823-4.907 12.499-11.384 13.692v5.14c9.293-1.24 16.462-9.199 16.462-18.832" mask="url(#prefix__b)"/>
            <path fill="red" d="M27.847 19.001c0 4.886-3.96 8.845-8.846 8.845s-8.846-3.96-8.846-8.845c0-4.885 3.96-8.846 8.846-8.846s8.846 3.96 8.846 8.846" mask="url(#prefix__b)"/>
        </g>
    </svg>